<svg width="163" height="25" viewBox="0 0 163 25" fill="none" xmlns="http://www.w3.org/2000/svg">
<g clip-path="url(#clip0_19_2)">
<path d="M7.74834 1.63123C7.2286 2.53484 6.62222 3.61562 6.397 4.02313L5.9812 4.76728L6.37967 5.60002C6.72617 6.30873 6.8128 6.39732 7.00337 6.18471C7.12465 6.04296 7.97357 4.60782 8.89179 2.96006L10.555 0.00119019H9.61944H8.68389L7.74834 1.63123Z" fill="#75DAB4"/>
<path d="M9.46351 3.6513L7.38452 7.31889L7.80032 8.08076C8.00822 8.50599 8.25077 8.86034 8.32007 8.86034C8.42401 8.86034 13.119 0.674711 13.3096 0.160894C13.3443 0.0723057 12.9631 0.00143433 12.4434 0.00143433H11.5252L9.46351 3.6513Z" fill="#75DAB4"/>
<path d="M13.7252 1.18841C11.8194 4.55479 9.22068 9.17914 9.0301 9.5335C8.83953 9.88785 8.87418 10.0473 9.28998 10.756C9.63648 11.3584 9.7924 11.5002 9.89635 11.323C9.96565 11.1813 11.1611 9.07283 12.5298 6.64549L15.0419 2.21604L16.2719 2.16289L17.502 2.10973L16.9476 1.06438L16.3759 0.00131226H15.3884H14.4009L13.7252 1.18841Z" fill="#75DAB4"/>
<path d="M3.26124 3.68642L2.81079 4.51916L5.58278 9.44471L8.35476 14.3525H9.29031C10.2258 14.3525 10.2258 14.3525 10.0353 13.945C9.91401 13.7324 8.73591 11.6417 7.40189 9.30297L4.99373 5.0507L5.5308 4.0585C5.82533 3.50925 6.06787 3.01315 6.06787 2.94228C6.06787 2.88912 5.54813 2.83597 4.9071 2.83597H3.72901L3.26124 3.68642Z" fill="#75DAB4"/>
<path d="M15.631 3.04873C15.4404 3.3145 14.9033 4.37757 14.9033 4.51931C14.9033 4.57246 16.4972 4.6079 18.455 4.6079C20.4127 4.6079 22.0066 4.55475 22.0066 4.48388C22.0066 4.43072 21.816 4.02321 21.5734 3.59798L21.123 2.83612H18.4723C16.5492 2.83612 15.7696 2.88927 15.631 3.04873Z" fill="#75DAB4"/>
<path d="M2.11754 5.70623C2.03092 5.83026 1.82302 6.20233 1.66709 6.50354L1.38989 7.08822L3.41691 10.7204L5.46125 14.3348L6.37947 14.3525C6.86457 14.3525 7.28037 14.3171 7.28037 14.2462C7.28037 14.1399 2.41206 5.49362 2.34277 5.49362C2.32544 5.49362 2.22149 5.59993 2.11754 5.70623Z" fill="#75DAB4"/>
<path d="M13.812 6.23759L13.3789 6.99946L18.3165 7.05261C21.0538 7.07033 23.3061 7.05261 23.3407 7.01717C23.3927 6.98174 23.2541 6.62738 23.0462 6.21987L22.6997 5.49344H18.4724H14.2452L13.812 6.23759Z" fill="#75DAB4"/>
<path d="M0.454354 8.66512C0.211805 9.05491 0.00390625 9.46242 0.00390625 9.55101C0.00390625 9.6396 0.592954 10.7735 1.3206 12.0315L2.6373 14.3525H3.57284H4.52571L4.09259 13.5907C3.86737 13.1832 3.05309 11.748 2.2908 10.3837L0.904802 7.93869L0.454354 8.66512Z" fill="#75DAB4"/>
<path d="M12.4261 8.71806C12.1835 9.14329 12.0276 9.53308 12.0796 9.60395C12.1142 9.69254 14.5051 9.74569 17.381 9.74569H22.6305L23.1329 10.7202C23.4274 11.2517 23.7219 11.6769 23.7912 11.6415C23.8778 11.6238 24.1724 11.1631 24.4669 10.6139L25.004 9.62167L24.5189 8.80665L24.0511 7.97391H18.4551H12.8592L12.4261 8.71806Z" fill="#75DAB4"/>
<path d="M14.7302 10.7382C14.7302 10.809 15.8217 12.7934 17.173 15.1676C18.5244 17.5595 19.6505 19.6502 19.7025 19.8451C19.7545 20.04 19.5639 20.607 19.252 21.174L18.715 22.1484H19.9277H21.1404L21.5736 21.422C21.8334 21.0322 22.0067 20.5893 21.972 20.4652C21.9374 20.3235 20.7073 18.0556 19.2347 15.4334L16.5493 10.6496L15.6484 10.6319C15.146 10.6319 14.7302 10.685 14.7302 10.7382Z" fill="#75DAB4"/>
<path d="M18.0566 11.6594C21.2097 17.3291 22.4571 19.473 22.5957 19.4376C22.665 19.4021 22.9249 19.0655 23.1501 18.6934L23.5486 17.9847L22.2839 15.77C21.5909 14.5474 20.6553 12.8997 20.2049 12.0847L19.3733 10.6318H18.4204H17.4849L18.0566 11.6594Z" fill="#75DAB4"/>
<path d="M20.4475 10.7204C20.4475 10.8622 23.9298 17.0103 24.0164 17.0103C24.0511 17.0103 24.2763 16.6559 24.5188 16.2307L24.9693 15.4511L23.6179 13.0415L22.2666 10.6496L21.3657 10.6318C20.8633 10.6318 20.4475 10.6673 20.4475 10.7204Z" fill="#75DAB4"/>
<path d="M0.540979 14.1931C0.246455 14.7247 0.00390625 15.2208 0.00390625 15.3271C0.00390625 15.4157 0.177156 15.8409 0.385055 16.2484L0.783528 17.0103H6.44878H12.1314L12.4779 16.3015C12.6684 15.9295 12.8244 15.5574 12.8244 15.5042C12.8244 15.4511 10.4855 15.4157 7.62687 15.4157H2.4294L1.9443 14.6006C1.07805 13.0946 1.14735 13.1123 0.540979 14.1931Z" fill="#75DAB4"/>
<path d="M12.4088 18.2501L9.84469 22.8568H8.64928C7.99093 22.8568 7.45386 22.9099 7.45386 22.9631C7.45386 23.0339 7.6964 23.5123 7.99093 24.0261L8.51068 24.9829H9.53285H10.5377L13.3097 20.0574L16.0816 15.1495L15.6832 14.4408C15.4753 14.0687 15.2154 13.7321 15.1461 13.6967C15.0595 13.6789 13.8294 15.7342 12.4088 18.2501Z" fill="#75DAB4"/>
<path d="M14.0546 20.4471C12.7033 22.8213 11.6118 24.8234 11.6118 24.8766C11.6118 24.9298 12.0276 24.9829 12.53 24.9829C13.3963 24.9829 13.4482 24.9475 13.7947 24.3096C13.9853 23.9553 14.9035 22.3252 15.8218 20.6775L17.5023 17.7186L17.1558 17.0276C16.9652 16.6378 16.74 16.2835 16.6533 16.2303C16.5667 16.1772 15.406 18.073 14.0546 20.4471Z" fill="#75DAB4"/>
<path d="M1.38989 17.9671C1.38989 18.1442 2.16952 19.4022 2.34277 19.5262C2.42939 19.5971 4.31781 19.668 6.5354 19.668H10.5548L11.0052 18.9061C11.2478 18.4809 11.4384 18.0734 11.4384 18.0202C11.4384 17.9493 9.18611 17.8962 6.41412 17.8962C3.65946 17.8962 1.38989 17.9316 1.38989 17.9671Z" fill="#75DAB4"/>
<path d="M16.4454 21.298C15.6658 22.6977 14.8688 24.0974 14.6956 24.4163L14.3491 25.001L15.3366 24.9478L16.3068 24.8947L17.6062 22.5914L18.9056 20.288L18.5591 19.5262C18.3685 19.1187 18.1259 18.782 18.0393 18.782C17.9527 18.782 17.2424 19.916 16.4454 21.298Z" fill="#75DAB4"/>
<path d="M2.94922 20.5716C2.94922 20.6779 3.12247 21.0854 3.33037 21.4574L3.71152 22.1484H6.43153H9.16887L9.60199 21.4043C9.84454 20.9968 10.0005 20.607 9.94849 20.5184C9.80989 20.2881 2.94922 20.3412 2.94922 20.5716Z" fill="#75DAB4"/>
<path d="M43.0628 18.4438C43.8863 18.4438 44.5834 18.4211 45.154 18.3757C45.7246 18.3303 46.1947 18.2395 46.5643 18.1033C46.9339 17.9607 47.2193 17.7564 47.4203 17.4905C47.6213 17.2247 47.7672 16.8745 47.858 16.4401C47.9552 15.9991 48.0103 15.4609 48.0233 14.8255C48.0428 14.1835 48.0525 13.4184 48.0525 12.53C48.0525 11.6416 48.0428 10.8797 48.0233 10.2443C48.0103 9.60231 47.9552 9.0641 47.858 8.62965C47.7672 8.18871 47.6213 7.83531 47.4203 7.56945C47.2193 7.30359 46.9339 7.10258 46.5643 6.96641C46.1947 6.82375 45.7246 6.72973 45.154 6.68434C44.5898 6.63895 43.8928 6.61625 43.0628 6.61625H33.735V18.4438H43.0628ZM31.8675 20V5.06H43.0628C44.204 5.06 45.1637 5.12809 45.9418 5.26426C46.7264 5.39395 47.3716 5.59496 47.8774 5.86731C48.3897 6.13965 48.782 6.48008 49.0543 6.88859C49.3332 7.29711 49.5342 7.7802 49.6574 8.33785C49.7871 8.88902 49.8616 9.51477 49.8811 10.2151C49.907 10.9089 49.92 11.6805 49.92 12.53C49.92 13.3795 49.907 14.1543 49.8811 14.8546C49.8616 15.5485 49.7871 16.1742 49.6574 16.7319C49.5342 17.283 49.3332 17.7629 49.0543 18.1714C48.782 18.5799 48.3897 18.9204 47.8774 19.1927C47.3716 19.465 46.7264 19.6693 45.9418 19.8055C45.1637 19.9352 44.204 20 43.0628 20H31.8675ZM53.3313 20V5.06H68.2713V6.61625H55.1988V11.5963H67.6488V13.1525H55.1988V18.4438H68.2713V20H53.3313ZM86.3113 5.06H88.4901L80.3976 20H77.9076L69.8151 5.06H71.9938L79.1526 18.755L86.3113 5.06ZM118.19 5.06H120.68L127.527 12.3744L134.375 5.06H136.865L128.461 13.775V20H126.593V13.775L118.19 5.06Z" fill="white"/>
<path d="M93.1464 6.305V20H91.2789V5.06H94.3914L103.097 18.1325L111.802 5.06H114.778V20H112.911V6.50926L104.04 20H102.153L93.1464 6.305Z" fill="#75DAB4"/>
</g>
<defs>
<clipPath id="clip0_19_2">
<rect width="163" height="25" fill="white"/>
</clipPath>
</defs>
</svg>
